<svg xmlns="http://www.w3.org/2000/svg" width="69" height="57" viewBox="0 0 69 57" fill="none">
    <path fill-rule="evenodd" clip-rule="evenodd"
          d="M27.6619 17.8116C29.0373 16.9035 30.859 17.9553 30.7603 19.6005L29.0503 48.0902C28.9612 49.5743 27.3414 50.4458 26.0538 49.7024L3.94607 36.9385C2.6585 36.1951 2.60337 34.3566 3.84409 33.5374L27.6619 17.8116Z"
          fill="white" fill-opacity="0.1" stroke="#00F0FF" stroke-width="2"></path>
    <path fill-rule="evenodd" clip-rule="evenodd"
          d="M29.2918 43.9853L16.9461 36.8575C15.6586 36.1141 15.6034 34.2756 16.8442 33.4564L30.4636 24.4641L29.2918 43.9853Z"
          fill="#00F0FF" fill-opacity="0.295564"></path>
    <path fill-rule="evenodd" clip-rule="evenodd"
          d="M48.126 12.8834C49.5014 11.9753 51.3231 13.0271 51.2244 14.6723L48.9785 52.0902C48.8894 53.5743 47.2696 54.4458 45.9821 53.7024L16.9461 36.9385C15.6585 36.1951 15.6034 34.3566 16.8441 33.5374L48.126 12.8834Z"
          fill="white" fill-opacity="0.1" stroke="#00F0FF" stroke-width="2"></path>
</svg>